<svg width="226.88" height="87.44" viewBox="0 0 226.88 87.44" xmlns="http://www.w3.org/2000/svg"><g id="svgGroup" stroke-linecap="round" fill-rule="nonzero" font-size="9pt" stroke="#ffffff" stroke-width="0.25mm" fill="#ffffff" style="stroke:#ffffff;stroke-width:0.25mm;fill:#ffffff"><path d="M 217.04 42.16 L 216.96 42 A 72.517 72.517 0 0 1 213.938 46.537 Q 212.436 48.607 210.96 50.267 A 32.796 32.796 0 0 1 208.68 52.6 Q 204.64 56.32 201.6 56.32 A 3.39 3.39 0 0 1 198.385 54.172 Q 197.608 52.565 197.47 49.755 A 25.957 25.957 0 0 1 197.44 48.48 A 34.886 34.886 0 0 1 199.718 36.224 A 41.076 41.076 0 0 1 200.64 33.96 Q 203.84 26.72 209.32 22.08 A 20.825 20.825 0 0 1 214.276 18.908 A 16.615 16.615 0 0 1 221.12 17.44 Q 224.32 17.44 226.88 18.72 L 225.76 22.4 Q 223.556 30.534 222.435 36.103 A 111.716 111.716 0 0 0 222.32 36.68 Q 221.2 42.4 220.48 47.92 A 574.591 574.591 0 0 0 220.384 48.614 Q 220.026 51.197 220.074 51.061 A 0.249 0.249 0 0 0 220.08 51.04 Q 219.284 57.349 218.605 61.336 A 90.567 90.567 0 0 1 218.2 63.56 A 45.009 45.009 0 0 1 217.365 67.091 Q 216.765 69.223 216 71 A 24.931 24.931 0 0 1 214.09 74.568 A 32.545 32.545 0 0 1 212.08 77.36 A 35.043 35.043 0 0 1 207.492 82.083 A 28.854 28.854 0 0 1 203.84 84.72 Q 200.369 86.828 197.282 87.302 A 11.585 11.585 0 0 1 195.52 87.44 A 9.867 9.867 0 0 1 192.868 87.099 A 7.813 7.813 0 0 1 190.12 85.72 Q 187.92 84 186.84 81.4 Q 185.76 78.8 185.76 76.08 A 12.309 12.309 0 0 1 185.864 74.428 Q 185.978 73.589 186.216 72.897 A 5.57 5.57 0 0 1 186.68 71.88 Q 187.6 70.32 188.76 69.68 Q 189.92 69.04 190.56 69.04 A 0.504 0.504 0 0 1 190.781 69.085 Q 191.04 69.21 191.04 69.68 Q 191.04 75.497 192.667 78.638 A 8.816 8.816 0 0 0 192.96 79.16 A 6.312 6.312 0 0 0 197.34 82.135 A 10.388 10.388 0 0 0 199.36 82.32 Q 206.08 82.32 209.44 75.52 Q 210.364 73.617 211.122 70.845 A 51.251 51.251 0 0 0 211.8 68.04 Q 212.721 63.73 214.286 54.163 A 946.449 946.449 0 0 0 214.56 52.48 Q 215.044 49.215 216.213 44.99 A 107.077 107.077 0 0 1 217.04 42.16 Z M 219.6 27.12 L 220.08 24 A 5.176 5.176 0 0 0 218.278 22.626 A 6.123 6.123 0 0 0 218.04 22.52 A 7.1 7.1 0 0 0 216.867 22.138 A 5.357 5.357 0 0 0 215.68 22 Q 212.597 22 210.036 25.038 A 14.909 14.909 0 0 0 209.32 25.96 Q 206.48 29.92 204.88 35.56 Q 203.449 40.605 203.298 44.786 A 26.993 26.993 0 0 0 203.28 45.76 A 13.406 13.406 0 0 0 203.318 46.806 Q 203.399 47.835 203.652 48.506 A 3.186 3.186 0 0 0 203.76 48.76 A 1.887 1.887 0 0 0 204.171 49.335 Q 204.549 49.685 205.112 49.747 A 2.281 2.281 0 0 0 205.36 49.76 Q 207.477 49.76 210.031 46.962 A 21.491 21.491 0 0 0 210.92 45.92 A 37.465 37.465 0 0 0 214.097 41.242 A 50.096 50.096 0 0 0 216.44 36.64 A 58.163 58.163 0 0 0 218.026 32.756 Q 219.15 29.672 219.6 27.12 Z M 4.96 57.04 L 5.68 56.88 A 0.441 0.441 0 0 1 5.802 56.896 A 0.293 0.293 0 0 1 6 57.08 A 0.869 0.869 0 0 1 6.042 57.223 Q 6.074 57.374 6.079 57.593 A 3.672 3.672 0 0 1 6.08 57.68 Q 6.56 62.16 8.08 65.08 A 5.083 5.083 0 0 0 11.309 67.653 Q 12.258 67.934 13.432 67.987 A 12.429 12.429 0 0 0 14 68 Q 16.96 68 18.96 66.24 Q 20.96 64.48 22.32 60.52 A 39.742 39.742 0 0 0 23.147 57.76 Q 23.971 54.633 24.697 50.302 A 133.812 133.812 0 0 0 24.8 49.68 L 31.68 6 L 31.28 6 A 12.245 12.245 0 0 1 30.178 5.945 Q 28.855 5.825 27.04 5.44 Q 23.743 4.847 21.696 4.742 A 16.095 16.095 0 0 0 20.88 4.72 Q 17.546 4.72 15.722 5.506 A 5.4 5.4 0 0 0 15.28 5.72 Q 13.44 6.72 11.76 8.48 Q 11.437 8.856 11.169 9.124 A 5.946 5.946 0 0 1 10.92 9.36 A 1.742 1.742 0 0 1 10.71 9.522 Q 10.592 9.598 10.479 9.637 A 0.723 0.723 0 0 1 10.24 9.68 A 0.806 0.806 0 0 1 10.018 9.652 Q 9.77 9.581 9.704 9.328 A 0.825 0.825 0 0 1 9.68 9.12 L 9.76 8.24 A 10.426 10.426 0 0 1 10.681 5.322 A 8.054 8.054 0 0 1 13.72 2 A 11.469 11.469 0 0 1 16.538 0.781 Q 19.2 0.003 22.931 0 A 35.702 35.702 0 0 1 22.96 0 A 36.451 36.451 0 0 1 26.849 0.216 A 42.408 42.408 0 0 1 28.32 0.4 A 13.726 13.726 0 0 0 28.621 0.439 Q 29.256 0.515 30.6 0.64 Q 32.32 0.8 34.16 0.8 Q 35.763 0.8 36.747 0.654 A 8.069 8.069 0 0 0 36.84 0.64 A 9.266 9.266 0 0 0 37.751 0.444 Q 38.39 0.274 39.12 0 A 50.214 50.214 0 0 0 38.394 2.238 Q 37.796 4.251 37.56 5.8 Q 37.2 8.16 37.12 8.88 L 31.6 44.8 Q 29.52 58.16 24.24 65.28 A 20.396 20.396 0 0 1 20.383 69.297 A 14.359 14.359 0 0 1 11.36 72.4 A 14.493 14.493 0 0 1 8.503 72.133 Q 6.5 71.731 4.96 70.72 A 12.646 12.646 0 0 1 2.874 69.029 A 9.615 9.615 0 0 1 1.2 66.76 A 13.869 13.869 0 0 1 0.567 65.394 Q 0.284 64.674 0.142 64.026 A 5.747 5.747 0 0 1 0 62.8 A 4.746 4.746 0 0 1 0.923 60.002 A 6.554 6.554 0 0 1 1.52 59.28 A 8.827 8.827 0 0 1 3.576 57.655 A 7.86 7.86 0 0 1 4.96 57.04 Z M 170.88 31.68 L 170.96 31.68 Q 174.64 25.2 179.04 21.32 Q 183.44 17.44 186.64 17.44 A 3.324 3.324 0 0 1 188.264 17.814 Q 190 18.768 190 22.16 Q 190 23.92 189.28 28.08 L 187.44 37.68 Q 185.524 47.412 185.444 49.07 A 2.708 2.708 0 0 0 185.44 49.2 A 1.911 1.911 0 0 0 185.549 49.851 A 1.752 1.752 0 0 0 185.72 50.2 A 0.912 0.912 0 0 0 186.325 50.609 A 1.499 1.499 0 0 0 186.64 50.64 A 2.041 2.041 0 0 0 187.869 50.15 Q 189.232 49.103 190.813 45.82 A 42.133 42.133 0 0 0 191.6 44.08 Q 191.84 43.2 192.4 43.2 A 0.383 0.383 0 0 1 192.758 43.436 Q 192.88 43.676 192.88 44.16 A 11.166 11.166 0 0 1 192.865 44.76 Q 192.849 45.057 192.816 45.32 A 6.547 6.547 0 0 1 192.8 45.44 Q 192.24 48.32 190.48 50.84 A 17.576 17.576 0 0 1 188.528 53.193 A 13.777 13.777 0 0 1 186.56 54.84 Q 185.142 55.811 183.897 56.145 A 4.85 4.85 0 0 1 182.64 56.32 A 3.09 3.09 0 0 1 181.748 56.2 Q 180.788 55.911 180.363 54.928 A 3.042 3.042 0 0 1 180.36 54.92 A 7.48 7.48 0 0 1 179.789 52.562 A 8.927 8.927 0 0 1 179.76 51.84 Q 179.76 48.504 181.478 40.221 A 226.998 226.998 0 0 1 181.76 38.88 A 242.667 242.667 0 0 0 182.563 34.913 Q 183.634 29.369 183.817 26.648 A 18.823 18.823 0 0 0 183.84 26.24 A 12.021 12.021 0 0 0 183.853 25.931 Q 183.885 24.852 183.687 24.312 A 1.454 1.454 0 0 0 183.64 24.2 A 0.921 0.921 0 0 0 183.14 23.737 Q 182.817 23.6 182.32 23.6 Q 180.005 23.6 177.376 26.459 A 18.859 18.859 0 0 0 177 26.88 A 30.636 30.636 0 0 0 174.073 30.91 A 41.064 41.064 0 0 0 171.92 34.92 A 45.807 45.807 0 0 0 170.301 38.787 Q 169.607 40.697 169.2 42.449 A 25.119 25.119 0 0 0 168.96 43.6 L 167.68 50.56 A 6.321 6.321 0 0 1 166.718 52.702 Q 166.212 53.446 165.473 54.155 A 11.844 11.844 0 0 1 165.12 54.48 Q 163.273 56.114 161.804 56.297 A 2.945 2.945 0 0 1 161.44 56.32 Q 160.747 56.32 160.721 55.875 A 0.606 0.606 0 0 1 160.72 55.84 A 1.142 1.142 0 0 1 160.737 55.664 Q 160.784 55.374 160.959 54.814 A 20.713 20.713 0 0 1 161.08 54.44 Q 161.44 53.36 162.08 50.72 Q 163.553 44.605 165.57 30.96 A 723.373 723.373 0 0 0 165.92 28.56 A 80.132 80.132 0 0 0 166.124 27.196 Q 166.4 25.23 166.4 24.32 A 3.403 3.403 0 0 0 166.385 23.98 Q 166.35 23.642 166.241 23.467 A 0.362 0.362 0 0 0 165.92 23.28 A 1.338 1.338 0 0 0 165.188 23.557 Q 164.215 24.222 162.79 26.483 A 39.966 39.966 0 0 0 161.84 28.08 Q 161.565 28.575 161.328 28.976 A 23.805 23.805 0 0 1 161.12 29.32 Q 160.859 29.745 160.677 29.983 A 2.866 2.866 0 0 1 160.6 30.08 Q 160.4 30.32 160.16 30.32 Q 159.583 30.32 159.526 29.669 A 1.724 1.724 0 0 1 159.52 29.52 A 4.199 4.199 0 0 1 159.659 28.513 Q 159.917 27.482 160.649 26.084 A 24.113 24.113 0 0 1 161.28 24.96 Q 163.04 22 165.44 19.72 A 13.09 13.09 0 0 1 166.681 18.67 Q 168.112 17.616 169.352 17.465 A 3.384 3.384 0 0 1 169.76 17.44 A 2.273 2.273 0 0 1 170.539 17.567 Q 171.228 17.816 171.6 18.56 A 4.934 4.934 0 0 1 172.002 19.733 Q 172.12 20.283 172.15 20.92 A 9.428 9.428 0 0 1 172.16 21.36 A 19.151 19.151 0 0 1 172.099 22.756 Q 171.88 25.68 170.88 31.68 Z M 110.96 31.92 L 111.12 31.92 A 71.967 71.967 0 0 1 114.161 26.635 Q 120.036 17.44 125.2 17.44 A 4.92 4.92 0 0 1 126.243 17.544 Q 127.189 17.749 127.8 18.36 Q 128.662 19.222 128.716 20.75 A 5.878 5.878 0 0 1 128.72 20.96 A 8.897 8.897 0 0 1 128.332 23.517 A 10.943 10.943 0 0 1 127.96 24.56 A 12.466 12.466 0 0 1 127.177 26.145 A 9.046 9.046 0 0 1 126.12 27.6 Q 125.223 28.597 124.464 28.766 A 1.397 1.397 0 0 1 124.16 28.8 Q 123.6 28.8 123.76 28.08 A 15.864 15.864 0 0 0 123.881 27.457 Q 123.983 26.867 123.998 26.452 A 3.811 3.811 0 0 0 124 26.32 Q 124 24.4 121.92 24.4 A 4.789 4.789 0 0 0 119.672 24.991 Q 118.316 25.705 116.96 27.28 A 25.751 25.751 0 0 0 114.36 30.925 A 34.064 34.064 0 0 0 112.6 34.32 A 46.433 46.433 0 0 0 111.177 37.822 Q 110.55 39.58 110.165 41.187 A 26.091 26.091 0 0 0 110 41.92 Q 109.04 45.6 108.8 49.6 A 4.964 4.964 0 0 1 108.348 51.178 Q 108.066 51.785 107.616 52.397 A 9.226 9.226 0 0 1 107.4 52.68 Q 106.16 54.24 104.56 55.28 Q 103.33 56.079 102.526 56.264 A 2.001 2.001 0 0 1 102.08 56.32 A 1.396 1.396 0 0 1 101.865 56.305 Q 101.752 56.287 101.658 56.249 A 0.71 0.71 0 0 1 101.56 56.2 Q 101.445 56.131 101.396 56.05 A 0.248 0.248 0 0 1 101.36 55.92 A 0.492 0.492 0 0 1 101.383 55.788 Q 101.465 55.505 101.84 54.88 A 4.177 4.177 0 0 0 102.154 54.222 Q 102.406 53.563 102.56 52.64 Q 102.88 50.96 103.12 49.56 Q 103.36 48.16 103.6 46.96 Q 105.441 36.869 106.164 32.373 A 161.584 161.584 0 0 0 106.28 31.64 A 82.906 82.906 0 0 0 106.546 29.808 Q 106.929 26.934 106.884 25.387 A 9.829 9.829 0 0 0 106.88 25.28 Q 106.88 24.459 106.78 23.987 A 2.08 2.08 0 0 0 106.72 23.76 A 0.729 0.729 0 0 0 106.567 23.492 Q 106.434 23.348 106.22 23.302 A 1.048 1.048 0 0 0 106 23.28 A 1.19 1.19 0 0 0 105.537 23.386 Q 105.141 23.554 104.656 23.99 A 7.957 7.957 0 0 0 104.161 24.48 Q 103.04 25.68 102.08 27.28 Q 101.805 27.775 101.568 28.176 A 23.805 23.805 0 0 1 101.36 28.52 Q 101.099 28.945 100.917 29.183 A 2.866 2.866 0 0 1 100.84 29.28 Q 100.64 29.52 100.4 29.52 Q 100.08 29.52 99.92 29.28 A 0.876 0.876 0 0 1 99.805 29.021 Q 99.774 28.906 99.764 28.769 A 1.81 1.81 0 0 1 99.76 28.64 A 3.838 3.838 0 0 1 99.904 27.661 Q 100.161 26.697 100.876 25.412 A 21.292 21.292 0 0 1 101.48 24.4 Q 103.2 21.68 105.56 19.56 Q 107.92 17.44 109.76 17.44 A 2.985 2.985 0 0 1 110.581 17.546 A 2.024 2.024 0 0 1 111.88 18.64 Q 112.387 19.654 112.466 21.64 A 19.263 19.263 0 0 1 112.48 22.4 A 22.383 22.383 0 0 1 112.332 24.842 Q 112.005 27.795 110.96 31.92 Z M 91.52 24.48 L 89.84 33.12 A 469.821 469.821 0 0 0 88.858 37.709 Q 87.725 43.149 87.279 46.124 A 43.424 43.424 0 0 0 87.12 47.28 A 7.033 7.033 0 0 0 87.071 47.734 Q 87.052 47.988 87.044 48.278 A 14.371 14.371 0 0 0 87.04 48.64 A 4.453 4.453 0 0 0 87.077 49.238 Q 87.235 50.4 88.08 50.4 Q 89.36 50.4 90.48 48.76 A 20.271 20.271 0 0 0 91.211 47.598 Q 91.932 46.371 92.765 44.655 A 68.649 68.649 0 0 0 93.04 44.08 Q 93.104 44.016 93.247 43.743 A 8.87 8.87 0 0 0 93.32 43.6 A 1.075 1.075 0 0 1 93.431 43.42 Q 93.503 43.328 93.587 43.274 A 0.46 0.46 0 0 1 93.84 43.2 A 0.383 0.383 0 0 1 94.198 43.436 Q 94.32 43.676 94.32 44.16 L 94.16 45.44 A 13.927 13.927 0 0 1 92.847 49.022 A 17.338 17.338 0 0 1 91.88 50.64 Q 90.16 53.2 88.04 54.76 Q 86.715 55.735 85.562 56.101 A 4.372 4.372 0 0 1 84.24 56.32 A 2.328 2.328 0 0 1 82.015 54.956 Q 81.498 53.941 81.446 52.171 A 13.853 13.853 0 0 1 81.44 51.76 Q 81.44 50 81.84 48.16 L 83.2 41.2 L 83.12 41.2 Q 79.617 47.33 75.682 51.362 A 34.722 34.722 0 0 1 74.92 52.12 Q 71.432 55.48 68.738 56.152 A 5.358 5.358 0 0 1 67.44 56.32 Q 63.708 56.32 63.39 49.827 A 25.914 25.914 0 0 1 63.36 48.56 A 35.369 35.369 0 0 1 66.205 34.793 A 40.855 40.855 0 0 1 66.6 33.88 A 34.391 34.391 0 0 1 71.395 26.037 A 29.924 29.924 0 0 1 75.36 22.04 A 20.856 20.856 0 0 1 80.543 18.816 A 17.053 17.053 0 0 1 87.28 17.44 A 17.409 17.409 0 0 1 89.982 17.639 Q 91.61 17.895 92.96 18.48 Q 91.92 22.56 91.52 24.48 Z M 85.28 28.72 L 86.56 23.6 A 9.626 9.626 0 0 0 83.824 22.317 A 8.468 8.468 0 0 0 81.52 22 A 6.174 6.174 0 0 0 77.937 23.184 Q 77.012 23.828 76.139 24.823 A 14.809 14.809 0 0 0 75.24 25.96 Q 72.4 29.92 70.8 35.56 Q 69.369 40.605 69.218 44.786 A 26.993 26.993 0 0 0 69.2 45.76 A 14.619 14.619 0 0 0 69.235 46.806 Q 69.309 47.835 69.541 48.506 A 3.348 3.348 0 0 0 69.64 48.76 A 1.793 1.793 0 0 0 70.018 49.324 Q 70.369 49.67 70.907 49.741 A 2.224 2.224 0 0 0 71.2 49.76 Q 73.44 49.76 76.36 46.28 Q 79.189 42.909 81.642 38.074 A 59.55 59.55 0 0 0 81.8 37.76 Q 84.32 32.72 85.28 28.72 Z M 45.2 48.4 L 49.04 27.04 Q 49.36 24.96 49.36 24.48 A 2.991 2.991 0 0 0 49.335 24.072 Q 49.225 23.28 48.64 23.28 A 1.598 1.598 0 0 0 48.001 23.429 Q 47.459 23.666 46.817 24.282 A 9.531 9.531 0 0 0 46.32 24.8 Q 45.091 26.173 43.667 28.982 A 44.771 44.771 0 0 0 43.36 29.6 A 3.439 3.439 0 0 1 43.223 29.951 Q 43.063 30.298 42.87 30.447 A 0.498 0.498 0 0 1 42.56 30.56 A 0.398 0.398 0 0 1 42.179 30.323 Q 42.091 30.146 42.081 29.837 A 2.476 2.476 0 0 1 42.08 29.76 A 5.745 5.745 0 0 1 42.265 28.384 Q 42.644 26.856 43.8 24.84 Q 45.52 21.84 48.04 19.64 A 12.524 12.524 0 0 1 49.495 18.534 Q 50.28 18.03 51.026 17.758 A 4.938 4.938 0 0 1 52.72 17.44 A 2.424 2.424 0 0 1 53.933 17.726 Q 55.2 18.444 55.2 20.96 Q 55.2 22.563 54.763 25.114 A 50.841 50.841 0 0 1 54.72 25.36 L 50.56 48.48 L 50.4 49.52 Q 50.4 50.309 50.979 50.391 A 1.012 1.012 0 0 0 51.12 50.4 A 1.564 1.564 0 0 0 51.759 50.248 Q 52.505 49.913 53.44 48.84 A 12.948 12.948 0 0 0 54.313 47.705 Q 55.161 46.481 56.093 44.684 A 46.263 46.263 0 0 0 56.4 44.08 Q 56.8 43.2 57.2 43.2 A 0.37 0.37 0 0 1 57.538 43.417 Q 57.68 43.675 57.68 44.24 A 5.306 5.306 0 0 1 57.504 45.53 Q 57.189 46.777 56.315 48.376 A 22.521 22.521 0 0 1 55.96 49 Q 54.24 51.92 51.76 54.12 A 13.104 13.104 0 0 1 50.412 55.177 Q 48.878 56.214 47.55 56.31 A 3.733 3.733 0 0 1 47.28 56.32 Q 45.143 56.32 44.79 53.756 A 8.211 8.211 0 0 1 44.72 52.64 Q 44.72 50.8 45.2 48.4 Z M 134.64 56.32 Q 131.28 56.32 129.56 53.72 Q 128.281 51.787 127.953 48.725 A 21.114 21.114 0 0 1 127.84 46.48 A 29.519 29.519 0 0 1 129.248 37.628 A 37.477 37.477 0 0 1 130.96 33.2 A 41.644 41.644 0 0 1 134.693 26.63 A 33.031 33.031 0 0 1 138.68 21.92 A 22.617 22.617 0 0 1 141.233 19.755 Q 142.665 18.724 144.053 18.152 A 8.853 8.853 0 0 1 147.44 17.44 A 5.569 5.569 0 0 1 149.855 17.95 Q 151.282 18.626 152.24 20.2 Q 153.92 22.96 153.92 27.44 Q 153.92 33.44 151 40.24 A 41.412 41.412 0 0 1 147.222 47.205 A 33.708 33.708 0 0 1 143.6 51.68 A 20.517 20.517 0 0 1 140.94 54.026 Q 139.365 55.173 137.79 55.747 A 9.153 9.153 0 0 1 134.64 56.32 Z M 143.047 48.731 A 10.905 10.905 0 0 0 143.36 48.36 A 15.816 15.816 0 0 0 145.137 45.57 Q 145.844 44.173 146.41 42.493 A 29.917 29.917 0 0 0 146.8 41.24 Q 148.08 36.8 148.08 31.84 Q 148.08 22.72 143.36 22.72 Q 140.602 22.72 138.503 25.499 A 11.669 11.669 0 0 0 138.2 25.92 A 20.976 20.976 0 0 0 136.105 29.839 A 28.544 28.544 0 0 0 134.84 33.72 A 39.86 39.86 0 0 0 133.935 38.438 A 30.817 30.817 0 0 0 133.68 42.32 A 21.031 21.031 0 0 0 133.817 44.795 Q 133.971 46.095 134.3 47.185 A 10.01 10.01 0 0 0 134.84 48.6 A 4.874 4.874 0 0 0 135.72 49.906 Q 136.738 50.96 138.318 51.035 A 5.168 5.168 0 0 0 138.56 51.04 Q 141.011 51.04 143.047 48.731 Z M 51.28 12.08 L 52.24 6.48 Q 52.64 4.16 53.96 2.92 A 4.529 4.529 0 0 1 56.731 1.705 A 6.02 6.02 0 0 1 57.28 1.68 L 57.6 1.68 A 2.23 2.23 0 0 1 57.793 1.688 Q 58.106 1.715 58.2 1.84 A 0.301 0.301 0 0 1 58.245 1.931 Q 58.302 2.11 58.24 2.48 L 57.36 8 Q 57.04 10.24 55.68 11.56 A 4.622 4.622 0 0 1 52.398 12.88 A 6.004 6.004 0 0 1 52.32 12.88 L 52 12.88 Q 51.2 12.88 51.28 12.08 Z" vector-effect="non-scaling-stroke"/></g></svg>